<?xml version="1.0" encoding="UTF-8"?>
<svg width="1200pt" height="1200pt" version="1.1" viewBox="0 0 1200 1200" xmlns="http://www.w3.org/2000/svg">
 <path d="m972.2 716.5c-11.723 0-139.21 0-222.73-96.719-83.531-96.707-92.316-366.35-92.316-444.01 0-77.652-10.285-115.77-57.156-115.77-46.883 0-57.156 38.113-57.156 115.77 0 77.664-8.7852 347.3-92.316 444.01-83.531 96.719-211 96.719-222.73 96.719-49.836 0-57.156 10.234-57.156 39.562 0 29.293 10.246 32.258 49.078 37.199 48.301 6.1914 167.8 25.824 242.52 135.74 74.762 109.89 79.152 211 137.76 211 58.633 0 63.023-101.11 137.75-211.01 74.746-109.91 194.21-129.55 242.51-135.74 38.844-4.9453 49.078-7.8945 49.078-37.199 0.003907-29.32-7.3047-39.555-57.129-39.555z"/>
</svg>
